<svg width="48" height="48" fill="none" xmlns="http://www.w3.org/2000/svg"><path opacity=".3" fill-rule="evenodd" clip-rule="evenodd" d="M10.267 4.072s20.834 11.628 15 25.98c-14.914-2.372-15-25.98-15-25.98Z" fill="#59C5FA"/><path opacity=".3" fill-rule="evenodd" clip-rule="evenodd" d="M37.483 4.072s-20.834 11.628-15 25.98c14.914-2.372 15-25.98 15-25.98Z" fill="#5D57F6"/><path opacity=".3" fill-rule="evenodd" clip-rule="evenodd" d="M24 2s-12.23 20.488 0 30c11.73-9.512 0-30 0-30Z" fill="#1445F5"/><path d="M11.236 27a1 1 0 0 1 1-1h23.527a1 1 0 0 1 1 1v17a2 2 0 0 1-2 2H13.236a2 2 0 0 1-2-2V27Z" fill="#1445F5"/></svg>