<svg width="119" height="24" fill="none" xmlns="http://www.w3.org/2000/svg"><path d="M9.743 3.5 6.15 2.89v4.806H.624v3.072h5.525v6.478c0 1.277-.208 2.19-.594 2.737-.386.548-1.07.821-2.02.821-.654 0-1.248-.06-1.753-.213a13.995 13.995 0 0 1-1.188-.395L0 23.116c.416.182.95.365 1.634.578.683.182 1.455.273 2.376.273 1.1 0 2.02-.152 2.763-.456a4.24 4.24 0 0 0 1.782-1.338c.446-.578.743-1.277.92-2.099.18-.79.268-1.733.268-2.798V3.5Z" fill="#003FFF"/><path fill-rule="evenodd" clip-rule="evenodd" d="M42.894 13.374c.311-.332.639-.682.967-1.057.505-.547 1.01-1.095 1.515-1.672A63.5 63.5 0 0 0 46.8 9.033c.446-.517.802-.943 1.13-1.338h4.247a258.39 258.39 0 0 1-3.119 3.527c-1.085 1.201-2.198 2.372-3.283 3.513l-.044.046a25.489 25.489 0 0 1 1.871 1.825c.654.73 1.278 1.49 1.901 2.311a40.66 40.66 0 0 1 1.723 2.433c.535.821.98 1.551 1.337 2.25h-4.158a34.096 34.096 0 0 0-1.042-1.7l-.176-.276c-.476-.7-.98-1.369-1.515-2.007-.535-.64-1.07-1.278-1.634-1.856-.565-.578-1.1-1.064-1.634-1.46v7.3h-3.594V.608L42.405 0v13.899c.156-.17.32-.345.489-.525Zm-18.16-5.74c-1.099.183-2.02.366-2.703.579v15.389h3.595V10.767c.087-.01.19-.026.312-.044.209-.03.468-.07.787-.108.505-.06.98-.09 1.426-.09.623 0 1.128.09 1.574.242.416.183.743.457 1.01.822.238.395.416.881.535 1.46.089.608.148 1.338.148 2.19v8.363h3.595V14.66c0-1.064-.09-2.068-.297-2.98-.208-.882-.565-1.673-1.07-2.312-.505-.638-1.188-1.125-2.05-1.49-.861-.334-1.9-.517-3.178-.517-1.337 0-2.584.091-3.683.274Zm-10.876.06h3.595v15.907h-3.595V7.694Zm47.298 12.9c-.446.243-1.13.365-2.08.365-.95 0-1.782-.092-2.525-.305a18.359 18.359 0 0 1-1.93-.638l-.624 3.072c.327.152.92.334 1.752.577.832.213 1.931.335 3.298.335 2.05 0 3.624-.395 4.723-1.186 1.099-.76 1.633-1.916 1.633-3.437 0-.7-.089-1.308-.267-1.825a3.595 3.595 0 0 0-.832-1.368c-.386-.396-.89-.73-1.485-1.065-.594-.304-1.307-.608-2.168-.943-.505-.182-.95-.365-1.307-.547a3.28 3.28 0 0 1-.862-.517c-.208-.152-.386-.335-.445-.547a1.724 1.724 0 0 1-.149-.7c0-.517.238-.912.683-1.186.446-.243 1.04-.365 1.783-.365.802 0 1.515.06 2.138.213.624.182 1.13.334 1.515.517l.654-2.98a15.063 15.063 0 0 0-1.872-.518 14.412 14.412 0 0 0-2.614-.243c-1.812 0-3.237.426-4.277 1.247-1.04.851-1.575 2.007-1.575 3.467 0 .76.12 1.4.357 1.886.208.517.535.973.92 1.338.387.365.862.669 1.427.943.534.273 1.128.547 1.782.79 1.07.396 1.842.791 2.317 1.126.446.334.683.79.683 1.307 0 .578-.208.974-.653 1.187Zm16.415-5.356c0-1.673-.208-2.859-.594-3.619-.416-.73-1.188-1.095-2.287-1.095-.386 0-.832.03-1.307.091-.279.036-.516.072-.713.101-.14.021-.258.039-.357.051v12.835H68.72V8.212c.683-.212 1.604-.395 2.733-.577a21.684 21.684 0 0 1 3.535-.274c1.07 0 1.96.152 2.643.426.684.274 1.248.669 1.694 1.125.208-.152.505-.334.831-.517.249-.138.531-.26.835-.39.097-.041.195-.083.294-.127a8.62 8.62 0 0 1 1.337-.365c.446-.091.92-.152 1.396-.152 1.218 0 2.198.183 3 .517.773.365 1.396.852 1.842 1.49.446.639.743 1.43.92 2.312.15.912.239 1.916.239 2.98v8.942h-3.595v-8.364c0-1.673-.208-2.859-.594-3.619-.386-.73-1.158-1.095-2.287-1.095-.565 0-1.129.091-1.634.274-.505.213-.891.395-1.159.578.149.517.268 1.034.327 1.612.06.577.09 1.186.09 1.824v8.79H77.57v-8.364Zm24.233 5.599c-.564.122-1.426.182-2.525.182-.92 0-1.633-.182-2.168-.517-.535-.334-.802-.912-.802-1.794 0-.456.089-.821.297-1.125.208-.274.475-.517.802-.67a3.903 3.903 0 0 1 1.099-.334 7.82 7.82 0 0 1 1.188-.091c.446 0 .862.03 1.248.091.386.06.653.122.861.183v4.075Zm.179-13.078c-.803-.304-1.813-.456-3-.456-.981 0-1.932.091-2.793.243-.861.152-1.545.335-1.99.487l.445 2.98c.446-.152 1.01-.304 1.694-.425a13.191 13.191 0 0 1 2.287-.183c.624 0 1.129.091 1.544.243.387.152.713.396.981.67.237.304.416.638.505 1.034.089.395.148.79.148 1.216v.608c-.505-.121-.95-.213-1.396-.273l-.089-.006a17.346 17.346 0 0 0-1.159-.055c-.86 0-1.663.091-2.435.243-.802.183-1.486.456-2.08.852a4.083 4.083 0 0 0-1.396 1.55c-.356.64-.534 1.4-.534 2.312 0 .943.148 1.764.475 2.403.297.639.713 1.186 1.277 1.581.535.396 1.188.7 1.96.882.773.183 1.634.274 2.555.274 1.396 0 2.674-.091 3.803-.243a57.85 57.85 0 0 0 2.495-.456v-9.641c0-.943-.089-1.795-.297-2.586a5.02 5.02 0 0 0-1.04-1.976c-.505-.548-1.158-.974-1.96-1.278Z" fill="#2E2F31"/><path d="m108.886 3.5 3.594-.61v4.806h5.525v3.072h-5.525v6.478c0 1.277.208 2.19.594 2.737.386.548 1.07.821 2.02.821.654 0 1.248-.06 1.753-.213.505-.152.891-.273 1.188-.395l.594 2.92c-.416.182-.95.365-1.634.578-.683.182-1.455.273-2.376.273-1.099 0-2.02-.152-2.763-.456a4.245 4.245 0 0 1-1.782-1.338c-.446-.578-.743-1.277-.921-2.099-.178-.79-.267-1.733-.267-2.798V3.5Z" fill="#003FFF"/></svg>